<?xml version="1.0" standalone="no"?>
<!DOCTYPE svg PUBLIC "-//W3C//DTD SVG 20010904//EN"
 "http://www.w3.org/TR/2001/REC-SVG-20010904/DTD/svg10.dtd">
<svg version="1.0" xmlns="http://www.w3.org/2000/svg"
 width="592.000000pt" height="595.000000pt" viewBox="0 0 592.000000 595.000000"
 preserveAspectRatio="xMidYMid meet">

<g transform="translate(0.000000,595.000000) scale(0.100000,-0.100000)"
fill="#000000" stroke="none">
<path d="M1122 5722 c-16 -28 -9 -69 25 -135 l24 -49 -33 6 -33 7 31 -15 c18
-8 35 -19 38 -25 4 -6 14 -11 21 -11 11 0 6 16 -17 62 -20 40 -34 84 -37 123
-6 56 -7 58 -19 37z"/>
<path d="M1168 5735 c-3 -3 4 -16 17 -29 21 -22 65 -122 65 -151 0 -8 5 -17
10 -20 6 -4 10 7 10 27 0 18 2 42 4 53 2 11 1 14 -1 8 -9 -26 -30 -12 -42 27
-12 42 -52 96 -63 85z"/>
<path d="M1305 5616 c12 -19 17 -47 17 -101 0 -41 3 -75 7 -75 3 0 12 9 19 20
7 12 8 20 2 20 -5 0 -10 24 -10 53 0 55 -16 97 -38 105 -10 3 -9 -3 3 -22z"/>
<path d="M1100 5508 c0 -9 11 -30 25 -46 29 -35 31 -44 9 -40 -10 2 -19 -1
-20 -7 -2 -5 11 -10 29 -10 17 0 42 -4 55 -8 34 -13 25 5 -19 36 -21 15 -48
42 -59 60 -12 20 -20 26 -20 15z"/>
<path d="M3174 5510 c-12 -5 -24 -20 -28 -35 -7 -28 12 -95 27 -95 4 0 5 4 2
10 -4 7 3 7 20 0 34 -13 58 -13 50 0 -3 6 -2 10 3 10 12 0 32 46 32 74 0 37
-57 56 -106 36z"/>
<path d="M1361 5414 c0 -11 3 -14 6 -6 3 7 2 16 -1 19 -3 4 -6 -2 -5 -13z"/>
<path d="M818 5395 c23 -7 67 -32 97 -54 60 -46 85 -53 61 -19 -19 27 -21 54
-3 62 6 3 3 4 -8 3 -14 -2 -19 -9 -18 -25 3 -26 2 -25 -61 20 -26 19 -51 28
-75 27 l-36 0 43 -14z"/>
<path d="M771 5373 c-1 -26 45 -67 94 -83 34 -11 35 -13 20 -30 -28 -31 -16
-55 30 -56 26 -1 30 0 12 3 -38 6 -46 31 -18 54 22 18 22 19 5 25 -24 8 -95
44 -113 58 -7 6 -17 19 -21 31 -9 20 -9 20 -9 -2z"/>
<path d="M1120 5381 c0 -6 9 -16 20 -23 24 -15 27 -33 4 -24 -11 4 -15 2 -11
-8 3 -8 11 -33 17 -56 9 -34 14 -39 25 -30 23 19 43 4 51 -37 l7 -38 9 32 c6
25 12 30 28 26 11 -3 20 0 20 6 0 6 -12 11 -28 11 -17 0 -32 8 -40 21 -10 15
-20 19 -38 15 -16 -4 -24 -2 -24 6 0 27 17 39 43 32 41 -10 32 10 -13 30 -22
10 -47 24 -55 32 -8 9 -15 11 -15 5z"/>
<path d="M1361 5371 c-7 -13 -7 -29 0 -51 6 -17 9 -34 5 -37 -3 -3 -1 -12 5
-20 22 -26 28 -12 13 30 -8 23 -13 54 -10 70 6 32 1 35 -13 8z"/>
<path d="M1066 5348 c-16 -22 -16 -22 -31 -3 -23 31 -18 12 11 -39 14 -25 30
-46 35 -46 12 0 11 4 -3 34 -9 21 -8 29 5 44 10 10 17 22 17 25 0 15 -20 6
-34 -15z"/>
<path d="M1411 5318 c-1 -34 2 -38 24 -38 18 0 23 4 19 15 -4 8 -12 15 -19 15
-8 0 -16 10 -18 23 -3 13 -5 8 -6 -15z"/>
<path d="M1330 5260 c0 -10 6 -25 14 -32 10 -9 10 -17 3 -30 -16 -25 5 -62 47
-82 23 -11 36 -24 36 -36 0 -11 7 -38 16 -60 29 -72 7 -54 -60 48 -59 90 -81
111 -118 112 -21 0 -4 -20 26 -31 24 -9 39 -24 54 -55 l21 -43 -42 29 c-24 16
-55 32 -70 35 -19 5 -27 14 -27 29 -1 12 -7 3 -17 -24 -8 -25 -20 -51 -27 -59
-8 -12 -8 -13 2 -7 7 4 17 19 22 32 5 13 17 24 25 24 28 0 120 -66 158 -112
36 -44 37 -46 22 -74 -20 -38 -19 -66 3 -95 10 -13 29 -44 41 -69 30 -60 49
-79 71 -75 12 2 17 -1 14 -9 -17 -45 517 -551 613 -580 37 -12 35 11 -6 83
-37 62 -199 292 -223 316 -21 21 17 -43 72 -120 114 -159 146 -225 94 -190
-14 9 -28 14 -31 11 -3 -2 13 -14 34 -25 22 -11 45 -27 53 -36 24 -29 2 -27
-42 3 -45 31 -76 62 -63 62 4 0 2 7 -5 15 -7 9 -19 14 -25 11 -7 -2 -19 4 -28
15 -9 10 -14 19 -11 19 4 0 1 7 -6 15 -6 8 -15 13 -19 12 -13 -4 -80 66 -74
76 4 6 1 7 -6 2 -14 -8 -63 33 -55 47 3 5 0 7 -6 6 -7 -2 -19 11 -29 28 -9 17
-22 29 -30 26 -9 -3 -11 0 -7 7 5 7 2 10 -6 9 -7 -2 -12 3 -10 10 1 8 -2 11
-7 8 -5 -4 -12 -2 -16 4 -3 5 -1 10 5 10 6 0 9 4 5 9 -3 6 -14 8 -25 6 -11 -2
-19 1 -17 8 1 7 -3 11 -10 10 -7 -2 -10 4 -6 13 4 10 -1 17 -15 21 -11 3 -19
10 -16 17 5 13 -111 128 -120 119 -3 -3 0 -13 7 -22 11 -14 10 -14 -6 -2 -13
10 -15 17 -6 27 8 10 4 23 -20 56 -17 23 -31 48 -31 55 0 7 -6 12 -12 11 -7
-2 -14 7 -16 18 -5 32 43 82 90 95 62 16 87 3 175 -96 29 -33 11 -4 -31 48
-45 56 -81 77 -135 77 -34 0 -43 4 -55 28 -24 47 -23 76 7 111 32 38 35 61 8
61 -11 0 -21 5 -23 11 -2 7 -12 -1 -22 -16 -18 -27 -18 -28 0 -20 60 24 70 14
30 -31 l-23 -28 -47 28 c-31 18 -46 33 -46 48 0 16 5 19 25 16 32 -7 32 -2 -6
33 -17 16 -28 33 -24 39 3 5 1 10 -4 10 -6 0 -11 -9 -11 -20z m705 -1058 c-3
-3 -11 0 -18 7 -9 10 -8 11 6 5 10 -3 15 -9 12 -12z"/>
<path d="M976 5184 c-15 -37 -16 -48 -6 -57 10 -9 11 -9 6 0 -5 10 7 47 32 96
2 4 0 7 -5 7 -4 0 -16 -21 -27 -46z"/>
<path d="M1039 5144 l-34 -25 30 7 c34 8 78 44 54 44 -8 0 -31 -12 -50 -26z"/>
<path d="M1140 5133 c-14 -10 -36 -23 -50 -30 -14 -6 -19 -12 -12 -12 7 -1 26
6 42 14 17 9 30 13 30 9 0 -4 7 -1 15 6 16 13 20 30 7 30 -4 0 -19 -8 -32 -17z"/>
<path d="M1141 5064 c0 -11 3 -14 6 -6 3 7 2 16 -1 19 -3 4 -6 -2 -5 -13z"/>
<path d="M2393 4991 c-42 -35 -22 -111 28 -111 13 0 18 4 13 12 -4 7 -3 8 4 4
16 -9 52 15 52 35 0 19 -49 79 -65 79 -5 -1 -20 -9 -32 -19z"/>
<path d="M3950 4990 c0 -5 -5 -10 -11 -10 -7 0 -18 -8 -25 -17 -11 -15 -9 -21
8 -40 12 -13 33 -23 49 -23 22 0 29 6 34 30 10 44 -2 70 -31 70 -13 0 -24 -4
-24 -10z"/>
<path d="M2905 4929 c-25 -34 -45 -66 -44 -73 0 -6 6 -2 12 9 7 11 33 42 60
69 26 27 47 50 47 52 0 2 -7 4 -15 4 -8 0 -35 -27 -60 -61z"/>
<path d="M2750 4895 c0 -34 25 -82 50 -95 23 -12 27 -30 6 -30 -22 0 -74 -65
-85 -107 -6 -21 -11 -60 -11 -86 0 -27 -11 -81 -24 -120 -14 -40 -32 -103 -41
-142 -18 -76 -51 -179 -66 -208 -35 -65 -28 -190 12 -242 26 -32 45 -33 24 -1
-22 34 -21 111 4 173 11 29 17 52 12 50 -5 -1 -9 1 -10 6 -4 29 1 56 14 73 15
18 16 16 10 -26 -4 -38 -3 -41 6 -20 14 34 20 82 8 75 -15 -10 -10 4 13 35 11
16 22 44 22 62 1 18 5 39 9 46 12 18 27 15 20 -5 -3 -10 -3 -15 1 -11 4 3 9
14 10 25 2 10 10 18 19 18 9 0 22 6 29 13 8 8 8 12 1 12 -6 0 -13 -6 -15 -12
-3 -7 -3 16 0 52 4 66 15 91 78 167 45 55 42 155 -5 166 -9 2 2 4 24 4 55 0
83 11 96 35 15 28 -5 40 -56 34 -27 -3 -45 0 -56 10 -15 13 -16 12 -12 -9 6
-30 -14 -45 -32 -26 -8 8 -21 31 -30 53 l-16 39 23 -6 c22 -6 22 -5 4 8 -28
21 -36 19 -36 -10z m195 -74 c9 -16 -25 -41 -55 -41 -38 0 -46 15 -18 34 25
18 64 21 73 7z"/>
<path d="M1600 4780 c-9 -6 -10 -10 -3 -10 6 0 15 5 18 10 8 12 4 12 -15 0z"/>
<path d="M2888 4748 c33 -33 2 -134 -64 -212 -20 -23 -34 -50 -34 -65 1 -25 1
-25 15 6 7 18 31 51 53 75 48 52 72 98 72 135 0 31 -24 73 -43 73 -8 0 -8 -3
1 -12z"/>
<path d="M1553 4725 c6 -16 31 -17 52 0 19 14 18 14 -17 12 -21 -1 -36 -6 -35
-12z"/>
<path d="M1800 4604 c0 -31 23 -28 28 4 2 15 -2 22 -12 22 -11 0 -16 -9 -16
-26z"/>
<path d="M1720 4609 c0 -5 5 -7 10 -4 6 3 10 8 10 11 0 2 -4 4 -10 4 -5 0 -10
-5 -10 -11z"/>
<path d="M4516 4520 l-30 -49 -56 6 c-76 7 -119 -8 -183 -67 -60 -54 -90 -109
-113 -203 -17 -69 -14 -96 29 -242 22 -73 20 -39 -4 72 -25 116 -22 178 13
253 34 75 78 123 140 154 49 24 126 35 141 20 17 -17 -17 -43 -68 -54 -64 -13
-75 -25 -13 -15 40 7 42 7 28 -11 -36 -47 -55 -63 -81 -69 -16 -4 -31 -11 -35
-16 -3 -6 5 -7 21 -3 l27 7 -28 -44 c-16 -24 -32 -45 -36 -47 -4 -2 -18 -12
-30 -23 l-23 -20 23 11 c26 13 26 13 6 -35 -21 -50 -12 -55 11 -5 10 22 22 37
26 34 5 -3 9 2 9 12 0 18 51 104 61 104 10 0 26 -23 37 -55 10 -30 10 -30 11
-4 1 15 -8 38 -19 52 l-20 25 38 42 38 43 22 -34 c12 -19 22 -27 22 -18 0 8
-7 24 -15 35 -20 26 -18 36 9 56 22 16 25 16 62 -8 l39 -25 -34 30 c-33 29
-34 30 -17 55 9 15 20 26 24 26 23 1 34 18 23 39 -7 11 -15 21 -19 21 -4 0
-20 -23 -36 -50z"/>
<path d="M1837 4443 c-14 -13 -6 -24 15 -21 27 4 36 28 11 28 -11 0 -23 -3
-26 -7z"/>
<path d="M3840 4385 c-25 -14 -24 -14 10 -9 28 5 39 1 54 -15 28 -31 11 -59
-70 -117 -167 -120 -279 -260 -396 -492 -62 -125 -68 -131 -39 -37 61 197 155
392 234 489 36 43 41 52 17 31 -69 -63 -167 -242 -235 -430 -18 -49 -59 -181
-90 -292 -47 -163 -62 -203 -76 -203 -30 0 -251 -60 -349 -95 -137 -48 -182
-69 -208 -98 -22 -23 -26 -24 -50 -11 -15 8 -36 14 -47 14 -20 -1 -20 -1 -1
-15 10 -8 22 -12 26 -10 13 8 36 -28 87 -136 l50 -105 -77 -37 c-43 -20 -91
-47 -107 -61 l-29 -25 -44 20 c-88 39 -192 60 -327 66 l-133 6 -34 61 c-56
100 -68 109 -140 104 -93 -7 -300 -113 -346 -178 -29 -41 -26 -96 9 -149 l29
-43 -44 -63 c-24 -35 -51 -79 -59 -99 -15 -35 -28 -106 -20 -106 2 0 21 32 42
72 83 158 235 270 443 328 36 10 54 19 41 19 -37 2 -200 -57 -261 -94 -77 -47
-146 -109 -197 -179 -54 -73 -57 -58 -4 21 40 60 152 163 176 163 8 0 26 11
42 23 33 28 151 70 243 87 149 28 347 11 490 -41 30 -11 60 -22 67 -24 9 -3 5
-17 -12 -47 -31 -54 -31 -70 -2 -104 64 -74 327 -33 492 78 137 91 194 185
226 366 20 117 25 205 9 164 -5 -12 -7 -28 -4 -36 9 -24 -34 -206 -66 -274
-67 -142 -242 -270 -422 -306 -137 -28 -210 -18 -228 30 -9 22 -6 32 15 60 58
76 171 114 365 123 118 6 129 8 86 15 -121 21 -328 -23 -426 -91 l-25 -17 25
28 c33 37 202 118 315 151 50 15 134 34 188 43 53 10 97 22 97 27 -1 6 -12 9
-25 7 -14 -2 -26 1 -26 7 -1 6 -2 15 -3 20 0 5 -5 13 -10 18 -5 4 -7 -3 -4
-19 5 -25 2 -27 -36 -34 -22 -3 -92 -21 -155 -40 -86 -24 -117 -30 -123 -21
-4 7 -26 54 -48 104 -31 69 -39 97 -31 110 11 22 51 59 51 48 0 -4 8 -1 18 7
9 9 42 23 72 33 30 10 81 28 113 42 47 19 286 83 313 83 3 0 3 -11 0 -24 -3
-14 -2 -27 3 -30 5 -3 12 9 15 27 l6 33 138 33 c297 70 621 154 692 178 124
42 200 63 295 82 50 10 97 21 106 25 12 5 25 -19 64 -124 26 -72 49 -129 51
-127 2 1 -14 57 -36 122 -22 66 -40 128 -40 138 0 19 -22 22 -51 7 -10 -6 -45
-15 -76 -21 -32 -6 -154 -40 -272 -75 -194 -59 -486 -136 -681 -180 -41 -9
-97 -23 -124 -30 -27 -8 -51 -12 -53 -10 -6 6 25 120 51 190 13 34 21 67 18
75 -3 9 0 11 8 6 10 -6 12 -2 7 14 -3 13 -3 20 0 17 4 -3 32 44 64 104 127
244 215 349 412 490 48 34 94 72 102 83 19 28 19 62 -1 81 -19 20 -80 20 -114
1z m-1902 -1421 c18 -12 54 -65 57 -84 4 -24 18 -50 26 -50 6 0 8 -4 5 -9 -3
-4 -31 -11 -63 -14 -109 -12 -303 -99 -363 -162 l-23 -24 -33 44 c-71 93 -34
158 140 244 135 67 213 84 254 55z"/>
<path d="M1830 2914 c-115 -36 -270 -141 -270 -182 0 -10 9 -30 20 -47 21 -32
28 -28 8 5 -22 34 1 71 77 122 120 81 249 120 283 86 9 -9 12 -9 12 0 0 14
-42 33 -68 31 -9 -1 -37 -7 -62 -15z"/>
<path d="M790 4071 c0 -12 40 -61 104 -130 57 -61 53 -59 -59 17 -130 90 -241
130 -252 92 -4 -12 -2 -12 5 -2 11 17 49 8 124 -29 70 -34 117 -65 278 -188
147 -112 188 -146 214 -179 l20 -25 -75 5 c-40 3 -65 3 -54 1 11 -3 25 -9 31
-14 7 -6 39 -9 73 -8 l61 2 -114 111 c-62 61 -162 157 -221 213 -75 72 -106
107 -101 118 3 9 2 13 -4 10 -6 -3 -10 -1 -10 4 0 6 -4 11 -10 11 -5 0 -10 -4
-10 -9z"/>
<path d="M605 4010 c10 -11 20 -20 23 -20 3 0 -3 9 -13 20 -10 11 -20 20 -23
20 -3 0 3 -9 13 -20z"/>
<path d="M4285 3998 c-30 -20 -60 -52 -77 -81 -15 -26 -40 -59 -55 -72 -16
-13 -23 -25 -18 -25 13 0 75 64 98 102 10 15 40 46 68 68 61 48 53 52 -16 8z"/>
<path d="M688 3920 c63 -60 110 -96 116 -89 5 5 -160 149 -171 149 -4 -1 20
-27 55 -60z"/>
<path d="M1047 3945 c-4 -9 -3 -13 3 -10 8 5 124 -109 189 -185 l21 -25 -19
35 c-11 19 -58 73 -104 118 -66 66 -86 80 -90 67z"/>
<path d="M1115 3820 c27 -27 51 -50 54 -50 3 0 -17 23 -44 50 -27 28 -51 50
-54 50 -3 0 17 -22 44 -50z"/>
<path d="M850 3796 c0 -3 29 -21 65 -41 69 -39 255 -110 255 -97 0 4 -46 25
-102 46 -57 22 -129 52 -160 68 -32 16 -58 26 -58 24z"/>
<path d="M925 3719 c8 -11 95 -63 99 -58 2 2 -21 18 -50 36 -30 17 -52 27 -49
22z"/>
<path d="M1500 3690 c14 -4 39 -8 56 -9 53 -2 121 -31 168 -72 52 -46 103
-141 112 -210 4 -26 13 -50 20 -53 33 -13 -3 -92 -37 -83 -11 3 -17 1 -13 -4
14 -24 45 -7 66 35 l21 45 -20 18 c-13 11 -26 40 -33 73 -15 78 -43 131 -98
184 -53 53 -141 87 -221 85 -38 -1 -42 -2 -21 -9z"/>
<path d="M1040 3650 c0 -5 5 -10 10 -10 6 0 10 5 10 10 0 6 -4 10 -10 10 -5 0
-10 -4 -10 -10z"/>
<path d="M1095 3600 c3 -5 10 -10 16 -10 5 0 9 5 9 10 0 6 -7 10 -16 10 -8 0
-12 -4 -9 -10z"/>
<path d="M1360 3551 c24 -22 46 -38 49 -36 2 3 2 6 0 8 -2 1 -24 17 -49 35
l-45 33 45 -40z"/>
<path d="M1340 3501 c25 -23 78 -57 119 -78 62 -30 86 -37 150 -39 l76 -3 -71
8 c-84 10 -135 31 -240 101 -78 51 -79 51 -34 11z"/>
<path d="M2831 3514 c0 -11 3 -14 6 -6 3 7 2 16 -1 19 -3 4 -6 -2 -5 -13z"/>
<path d="M2821 3474 c0 -11 3 -14 6 -6 3 7 2 16 -1 19 -3 4 -6 -2 -5 -13z"/>
<path d="M1621 3445 c18 -19 35 -32 38 -30 6 7 -50 65 -62 65 -5 0 6 -16 24
-35z"/>
<path d="M2830 3441 c0 -6 4 -13 10 -16 6 -3 7 1 4 9 -7 18 -14 21 -14 7z"/>
<path d="M1319 3362 c5 -10 18 -25 27 -33 11 -9 9 -2 -6 19 -26 35 -36 42 -21
14z"/>
<path d="M4630 3357 c0 -14 30 -80 35 -75 3 2 -4 22 -15 44 -10 21 -19 35 -20
31z"/>
<path d="M2845 3320 c-3 -5 -1 -10 4 -10 6 0 11 5 11 10 0 6 -2 10 -4 10 -3 0
-8 -4 -11 -10z"/>
<path d="M3981 3291 c-12 -12 -19 -25 -17 -30 3 -5 -3 -16 -14 -26 -20 -18
-21 -18 -34 0 -9 13 -19 16 -32 11 -18 -7 -17 -9 4 -17 13 -5 21 -13 17 -18
-12 -20 14 -20 40 1 22 17 31 19 46 10 31 -20 71 -14 127 18 28 17 52 32 52
35 0 2 -25 -7 -55 -21 -54 -23 -105 -31 -118 -17 -4 3 0 17 9 31 22 34 3 51
-25 23z"/>
<path d="M2721 3279 c-1 -9 7 -23 17 -30 15 -12 16 -12 6 1 -6 8 -14 22 -17
30 -5 13 -6 12 -6 -1z"/>
<path d="M1425 3254 c11 -9 43 -27 70 -40 43 -19 46 -23 23 -23 -15 -1 -30 -6
-34 -12 -5 -9 10 -10 57 -4 140 18 564 22 625 7 21 -6 75 -13 119 -17 44 -3
126 -14 182 -23 56 -10 100 -15 97 -11 -8 14 -158 40 -349 60 -160 16 -229 19
-352 13 -109 -5 -153 -4 -153 4 0 6 9 16 20 22 11 6 20 15 20 21 0 5 -14 -1
-31 -13 -23 -18 -47 -24 -104 -26 -66 -4 -82 -1 -142 27 -37 17 -59 24 -48 15z"/>
<path d="M3700 3260 c0 -5 5 -10 10 -10 6 0 10 5 10 10 0 6 -4 10 -10 10 -5 0
-10 -4 -10 -10z"/>
<path d="M4671 3260 c0 -14 28 -72 29 -59 0 4 -7 22 -15 40 -8 19 -14 27 -14
19z"/>
<path d="M3241 3224 c0 -11 3 -14 6 -6 3 7 2 16 -1 19 -3 4 -6 -2 -5 -13z"/>
<path d="M3791 3190 c-11 -32 -38 -40 -47 -15 -9 22 -21 18 -28 -10 -7 -26
-40 -50 -57 -40 -5 4 -7 15 -4 26 11 33 -13 20 -31 -17 -26 -55 -64 -63 -44
-9 15 39 -2 55 -31 29 -16 -14 -20 -26 -16 -51 6 -37 -11 -53 -58 -53 -36 0
-40 21 -11 64 18 27 23 43 17 59 -11 28 -37 33 -62 11 -16 -14 -19 -29 -17
-83 l2 -66 3 62 c4 69 23 97 48 72 13 -13 12 -19 -10 -51 -30 -44 -31 -64 -6
-78 31 -16 66 -12 87 11 10 11 26 18 36 15 11 -2 31 6 47 20 17 14 42 24 59
24 20 0 36 7 46 22 13 18 17 19 32 7 14 -12 19 -10 40 14 13 15 25 27 28 27 3
0 17 -22 33 -50 15 -27 31 -50 36 -50 9 0 10 -5 -18 70 -13 36 -24 58 -25 50
0 -12 -3 -12 -14 3 -18 23 -22 22 -35 -13z m-221 -57 c0 -5 -4 -15 -10 -23
-11 -18 -25 -7 -17 15 6 15 27 21 27 8z"/>
<path d="M337 3174 c-15 -15 -27 -32 -27 -39 0 -20 35 -45 63 -45 22 0 28 7
38 40 13 43 9 53 -27 64 -15 5 -29 -1 -47 -20z"/>
<path d="M1340 3159 c-145 -24 -249 -44 -285 -55 -60 -19 -29 -16 81 6 55 12
133 26 174 32 41 6 95 14 120 18 l45 7 -40 0 c-22 1 -65 -3 -95 -8z"/>
<path d="M3191 3069 c-6 -18 -11 -37 -10 -43 0 -6 7 7 15 28 8 22 12 41 10 43
-2 2 -9 -10 -15 -28z"/>
<path d="M923 3056 c-39 -19 -74 -39 -78 -45 -4 -7 11 -31 34 -57 37 -39 90
-137 131 -242 7 -18 14 -31 16 -29 4 4 -58 163 -83 212 -8 17 -29 44 -45 62
-19 19 -28 38 -25 47 3 8 37 31 74 50 88 45 69 46 -24 2z"/>
<path d="M2740 3081 c0 -5 5 -13 10 -16 6 -3 10 -2 10 4 0 5 -4 13 -10 16 -5
3 -10 2 -10 -4z"/>
<path d="M4175 3063 c-22 -8 -50 -11 -62 -8 -15 3 -30 -2 -43 -15 -27 -27 -25
-35 2 -16 12 9 37 16 56 16 30 0 92 24 92 35 0 3 -1 4 -2 4 -2 -1 -21 -8 -43
-16z"/>
<path d="M4750 3054 c0 -13 113 -220 136 -248 14 -17 21 -22 15 -10 -5 11 -17
26 -25 34 -9 7 -16 18 -16 25 0 6 -12 34 -26 61 -15 27 -38 70 -51 97 -22 43
-33 57 -33 41z"/>
<path d="M3237 2885 c-10 -237 -44 -349 -131 -443 -26 -27 -74 -64 -109 -83
-53 -28 -74 -34 -147 -37 -70 -3 -94 0 -132 17 -55 23 -123 83 -173 151 -62
85 -189 134 -345 134 -217 -1 -433 -107 -554 -273 -48 -65 -46 -75 3 -14 88
112 243 211 386 248 210 55 419 6 513 -118 22 -30 68 -78 101 -107 49 -43 66
-65 91 -126 62 -149 93 -347 79 -505 -8 -85 -33 -177 -93 -334 -4 -11 1 -6 12
10 11 17 36 78 56 137 72 217 57 493 -39 697 -34 71 -34 73 -13 66 13 -4 57
-10 99 -12 l77 -5 25 -87 c41 -138 48 -188 48 -321 0 -145 -15 -234 -64 -380
-20 -58 -34 -107 -32 -109 10 -9 49 103 81 227 30 118 34 149 34 262 0 141
-15 239 -53 343 -17 47 -21 69 -14 72 83 24 128 47 170 85 53 47 103 136 113
203 5 26 12 37 24 37 23 0 70 48 70 71 0 10 13 25 29 34 16 8 32 24 36 35 3
11 11 20 17 20 6 0 36 20 66 45 31 25 61 44 68 41 8 -3 16 -1 19 4 4 6 3 10
-2 11 -4 0 -16 2 -27 4 -11 2 -34 -13 -62 -41 -31 -32 -49 -44 -62 -40 -14 5
-20 -1 -27 -26 -12 -39 -55 -54 -55 -19 0 11 -4 22 -9 26 -17 10 -23 -15 -11
-44 16 -39 -9 -101 -41 -101 -19 0 -21 4 -16 38 12 78 18 279 10 317 -8 33
-11 12 -16 -110z"/>
<path d="M3961 3015 c-18 -8 -49 -15 -69 -15 l-36 0 23 -22 c19 -17 27 -19 40
-10 9 7 23 15 31 18 8 3 23 10 32 15 10 5 25 9 33 9 9 0 13 5 10 10 -8 13 -23
12 -64 -5z"/>
<path d="M2908 3013 c12 -2 30 -2 40 0 9 3 -1 5 -23 4 -22 0 -30 -2 -17 -4z"/>
<path d="M3411 3004 c0 -11 3 -14 6 -6 3 7 2 16 -1 19 -3 4 -6 -2 -5 -13z"/>
<path d="M2780 3006 c0 -2 7 -9 15 -16 12 -10 15 -10 15 4 0 9 -7 16 -15 16
-8 0 -15 -2 -15 -4z"/>
<path d="M4485 2943 c-22 -8 -46 -17 -54 -19 -8 -3 -12 -7 -9 -9 8 -8 108 25
108 35 0 6 -1 10 -2 9 -2 -1 -21 -8 -43 -16z"/>
<path d="M3605 2903 c-41 -37 -34 -36 20 1 16 11 38 19 47 18 10 -2 18 2 18 7
0 23 -47 9 -85 -26z"/>
<path d="M4265 2890 c-3 -6 1 -7 9 -4 18 7 21 14 7 14 -6 0 -13 -4 -16 -10z"/>
<path d="M801 2854 c-64 -17 -116 -41 -132 -60 -15 -18 -5 -41 62 -146 27 -42
49 -84 49 -92 0 -10 -16 -19 -42 -26 -96 -25 -239 -87 -253 -110 -4 -6 0 -19
8 -28 26 -30 136 -235 173 -322 19 -47 65 -157 100 -245 36 -88 80 -191 99
-230 18 -38 75 -167 125 -285 133 -310 174 -399 346 -747 151 -305 181 -353
223 -353 15 0 113 48 293 143 37 19 82 47 101 61 18 14 92 53 163 87 71 33
161 75 199 94 99 47 232 98 429 166 94 32 218 77 276 99 310 122 382 146 459
152 32 3 34 1 38 -32 9 -76 52 -119 124 -127 58 -5 110 25 164 95 22 30 52 60
65 68 38 21 118 42 190 49 99 10 255 41 460 91 102 25 317 74 478 109 161 36
349 83 419 105 70 22 159 46 198 52 78 12 95 21 95 50 0 34 -80 172 -135 234
-51 57 -53 58 -72 41 -11 -9 -25 -17 -31 -17 -15 0 -16 -17 -2 -25 6 -4 8 -15
5 -26 -4 -13 -2 -19 8 -19 17 0 32 -30 20 -40 -4 -4 -45 -17 -91 -30 -45 -13
-81 -25 -78 -27 2 -2 38 5 80 17 41 11 78 20 81 20 11 0 4 -29 -7 -33 -8 -3
-6 -6 5 -6 30 -2 15 -32 -19 -37 -6 -1 -40 -11 -75 -23 -75 -24 -497 -145
-719 -206 -85 -23 -213 -54 -285 -70 -297 -62 -587 -154 -653 -206 -14 -10
-31 -19 -38 -19 -21 0 -35 36 -32 82 l3 42 78 27 c43 15 83 32 90 37 7 5 91
35 187 67 337 109 554 185 547 191 -2 3 -57 -14 -123 -36 -193 -66 -233 -78
-352 -100 -135 -25 -256 -66 -370 -125 l-84 -43 -29 46 c-16 25 -30 52 -30 59
-1 7 -2 16 -3 21 -1 4 -34 74 -74 155 -57 116 -71 152 -62 162 9 11 4 21 -22
48 -18 18 -51 64 -71 103 -84 153 -143 248 -157 252 -13 4 -13 2 1 -14 8 -10
46 -75 84 -144 37 -69 81 -144 98 -167 16 -23 26 -46 23 -52 -5 -8 110 -252
204 -432 31 -59 22 -63 -138 -50 -268 23 -568 -10 -917 -99 -381 -97 -566
-167 -729 -275 -28 -19 -66 -37 -84 -41 -28 -6 -36 -2 -66 29 -19 20 -48 71
-66 114 -17 43 -48 116 -67 163 -19 47 -120 256 -223 465 -104 209 -232 475
-285 590 -53 116 -150 315 -216 444 -65 129 -119 242 -119 251 0 27 22 40 117
70 91 30 79 40 -16 14z m20 -366 c11 -21 11 -22 -4 -9 -10 7 -17 17 -17 22 0
15 9 10 21 -13z m-41 -3 c0 -9 -8 -18 -17 -21 -25 -8 -52 -19 -96 -38 l-38
-16 24 -33 c13 -17 27 -41 30 -52 3 -11 24 -67 47 -125 23 -58 45 -116 50
-130 5 -14 27 -72 50 -130 23 -58 51 -132 62 -165 27 -82 48 -135 63 -165 7
-14 18 -43 25 -65 7 -22 21 -56 31 -75 10 -19 66 -147 125 -285 149 -350 371
-810 406 -842 39 -35 96 -19 249 71 31 18 68 36 82 40 14 3 33 14 43 23 21 22
90 53 115 53 11 0 46 13 79 30 61 31 373 171 495 222 468 196 650 257 795 264
l85 4 -90 -24 c-97 -26 -204 -64 -275 -99 -25 -12 -48 -21 -52 -19 -5 1 -8 -2
-8 -8 0 -5 -8 -9 -17 -8 -10 1 -27 0 -38 -1 -17 -1 -18 -3 -5 -12 12 -9 12
-10 -4 -5 -23 8 -58 -2 -51 -14 3 -4 -3 -6 -13 -3 -11 2 -25 -2 -33 -10 -8 -7
-20 -12 -27 -9 -7 2 -39 -8 -70 -23 -31 -15 -68 -29 -82 -31 -13 -1 -26 -7
-28 -13 -2 -5 -9 -8 -16 -5 -8 3 -22 -3 -31 -13 -10 -10 -20 -16 -22 -14 -2 1
-16 -2 -31 -7 -15 -6 -78 -29 -140 -51 -61 -22 -138 -53 -170 -68 -31 -15 -61
-28 -67 -29 -24 -4 -344 -168 -405 -208 -19 -12 -59 -30 -89 -40 -29 -9 -65
-26 -80 -36 -35 -24 -93 -34 -113 -18 -9 7 -54 87 -101 178 -46 91 -99 190
-117 220 -43 72 -105 200 -114 233 -3 14 -12 32 -19 39 -11 12 -57 103 -57
114 0 3 4 2 10 -1 6 -3 7 1 4 9 -3 9 -10 16 -14 16 -9 0 -88 183 -95 219 -2
14 -9 27 -14 30 -16 10 -52 103 -47 118 3 8 1 11 -4 8 -6 -3 -15 6 -20 22 -6
15 -15 36 -21 47 -7 12 -7 16 0 12 6 -4 3 7 -7 23 -9 17 -20 31 -24 31 -4 0
-10 17 -14 38 -4 20 -13 47 -21 59 -8 11 -22 43 -33 70 -80 209 -187 449 -266
596 -25 46 -25 49 -9 67 10 11 22 17 26 14 5 -3 9 -1 9 5 0 6 7 7 17 4 11 -4
14 -3 9 6 -5 8 -3 12 5 10 21 -3 79 13 75 20 -2 3 18 7 45 8 38 2 49 -1 49
-12z m46 -33 c-3 -5 7 -24 23 -43 15 -19 33 -50 40 -69 63 -170 239 -532 406
-835 33 -59 185 -386 261 -560 79 -181 128 -270 150 -273 13 -2 55 19 105 51
138 90 311 170 467 216 134 40 540 110 870 151 156 19 400 27 322 10 -19 -4
-82 -17 -140 -29 -235 -49 -504 -132 -750 -231 -200 -80 -243 -100 -586 -271
-328 -164 -344 -169 -377 -114 -255 420 -357 618 -457 890 -48 129 -66 174
-100 250 -10 22 -21 51 -25 65 -4 14 -49 108 -100 210 -51 102 -114 232 -141
290 -26 58 -60 125 -76 149 -44 69 -39 86 35 121 64 31 82 36 73 22z m4747
-796 c-3 -6 -3 -8 2 -4 9 9 20 -5 57 -72 50 -90 42 -130 -27 -130 -18 0 -112
-24 -208 -54 -95 -30 -221 -64 -278 -76 -57 -12 -139 -30 -181 -42 -43 -11
-85 -17 -93 -14 -9 3 -14 2 -11 -2 5 -9 -474 -122 -579 -136 -78 -11 -311 -59
-351 -72 -16 -5 -16 -4 -4 5 8 6 112 34 230 62 723 174 1195 298 1359 357 10
4 12 1 6 -9 -5 -8 8 3 29 24 35 33 38 40 28 62 -6 14 -16 25 -21 25 -12 0 -23
29 -15 41 3 6 12 5 22 -3 15 -11 15 -11 5 2 -6 8 -14 38 -18 65 l-7 50 30 -34
c17 -19 28 -40 25 -45z"/>
<path d="M4176 2849 c-27 -4 -70 -17 -97 -28 -26 -12 -54 -18 -62 -15 -9 3
-27 -2 -41 -11 -20 -13 -29 -15 -39 -6 -14 11 -27 5 -27 -12 0 -5 16 -7 38 -3
20 3 54 8 74 11 21 2 51 11 67 19 16 9 47 18 70 22 22 4 49 13 58 20 10 7 16
13 13 13 -3 -1 -27 -5 -54 -10z"/>
<path d="M4541 2785 c-18 -19 -45 -38 -59 -41 -15 -4 -37 -13 -49 -20 -21 -13
-23 -13 -24 8 -1 13 0 35 1 51 2 27 -14 38 -22 15 -7 -20 3 -158 12 -158 4 0
11 12 15 27 10 39 24 53 54 53 18 0 40 13 66 40 21 22 45 40 53 40 7 0 10 5 7
10 -10 16 -19 12 -54 -25z"/>
<path d="M2035 2780 l-50 -7 45 0 c25 -1 72 3 105 7 l60 7 -55 0 c-30 0 -77
-3 -105 -7z"/>
<path d="M2223 2773 c15 -2 37 -2 50 0 12 2 0 4 -28 4 -27 0 -38 -2 -22 -4z"/>
<path d="M3038 2773 c7 -3 16 -2 19 1 4 3 -2 6 -13 5 -11 0 -14 -3 -6 -6z"/>
<path d="M3680 2767 c-3 -3 -3 -28 -2 -56 l4 -50 24 16 c26 16 33 36 10 27 -9
-4 -16 6 -22 31 -5 20 -11 34 -14 32z"/>
<path d="M4910 2766 c0 -3 20 -36 45 -72 25 -36 71 -108 101 -160 30 -52 57
-94 60 -94 4 0 -29 63 -75 140 -11 19 -29 51 -40 71 -11 21 -26 43 -33 50 -8
8 -23 27 -36 43 -12 16 -22 26 -22 22z"/>
<path d="M2358 2753 c7 -3 16 -2 19 1 4 3 -2 6 -13 5 -11 0 -14 -3 -6 -6z"/>
<path d="M3852 2750 c-35 -8 -49 -17 -40 -25 3 -3 25 3 49 14 47 21 44 24 -9
11z"/>
<path d="M4340 2744 c-16 -8 -19 -14 -9 -14 8 0 24 7 35 15 24 18 7 18 -26 -1z"/>
<path d="M4280 2710 c-8 -5 -24 -10 -35 -10 -11 0 -29 -8 -40 -16 -19 -14 -17
-15 20 -9 22 4 49 16 60 26 21 21 19 24 -5 9z"/>
<path d="M1030 2665 c0 -5 5 -17 10 -25 5 -8 10 -10 10 -5 0 6 -5 17 -10 25
-5 8 -10 11 -10 5z"/>
<path d="M3522 2615 c-18 -13 -42 -21 -52 -18 -12 3 -20 -2 -25 -17 -5 -14
-12 -19 -24 -15 -13 4 -24 -3 -36 -21 -15 -24 -19 -25 -27 -11 -5 10 -19 17
-31 16 l-22 0 23 -9 c12 -6 22 -18 22 -30 0 -28 12 -25 35 10 13 20 26 28 37
24 10 -3 22 2 29 14 7 11 19 17 29 15 10 -3 32 8 51 25 42 37 36 48 -9 17z"/>
<path d="M4703 2563 c-3 -10 -8 -21 -10 -25 -2 -3 4 -13 13 -22 12 -12 20 -13
35 -6 25 14 25 46 0 60 -26 14 -31 13 -38 -7z m47 -17 c0 -8 -5 -18 -10 -21
-17 -11 -40 3 -34 20 8 19 44 20 44 1z"/>
<path d="M3880 2545 c-14 -8 -35 -14 -46 -15 -12 0 -27 -7 -34 -15 -6 -8 -21
-13 -32 -12 -12 1 -22 -3 -25 -8 -5 -15 43 -13 59 3 6 6 19 12 27 12 20 0 90
33 91 43 0 10 -12 8 -40 -8z"/>
<path d="M2265 2510 l-28 -30 34 -29 34 -30 22 21 c13 12 23 26 23 32 -1 10
-45 66 -53 66 -2 0 -16 -13 -32 -30z m58 -14 c15 -22 15 -25 -3 -41 -19 -17
-21 -17 -40 0 -23 21 -25 36 -8 53 18 18 34 15 51 -12z"/>
<path d="M3713 2458 c6 -102 8 -106 17 -43 8 58 2 125 -12 125 -6 0 -8 -33 -5
-82z"/>
<path d="M3570 2415 c-24 -17 -37 -22 -46 -14 -9 7 -18 1 -34 -21 -17 -23 -28
-30 -43 -26 -13 3 -25 -1 -33 -12 -11 -16 -13 -16 -31 1 -24 21 -33 22 -33 3
0 -18 22 -26 70 -26 30 0 44 6 63 30 14 17 34 30 45 30 11 0 32 10 47 22 16
12 47 25 69 29 l41 6 -41 2 c-28 1 -50 -6 -74 -24z"/>
<path d="M5120 2427 c0 -8 43 -71 63 -92 14 -15 -22 47 -44 76 -10 13 -19 20
-19 16z"/>
<path d="M2060 2399 c61 -24 86 -71 70 -129 -13 -50 -51 -80 -100 -80 -71 0
-116 63 -99 140 7 32 7 33 -7 16 -43 -59 26 -176 104 -176 68 0 122 60 122
135 0 29 -8 45 -34 71 -20 20 -44 34 -57 33 l-24 0 25 -10z"/>
<path d="M4000 2400 c-10 -7 -4 -8 20 -4 45 7 105 -17 112 -44 8 -28 -22 -85
-49 -97 -28 -12 -30 -25 -3 -18 25 7 68 56 76 88 8 30 -11 64 -42 75 -32 13
-95 12 -114 0z"/>
<path d="M4673 2362 c-41 -17 -75 -41 -39 -28 134 48 244 26 261 -54 9 -40
-14 -109 -42 -127 -45 -30 -16 -23 58 12 40 19 82 35 93 35 19 0 19 -1 -2 -23
-16 -17 -22 -36 -22 -70 0 -27 5 -47 11 -47 7 0 8 14 4 40 -7 44 2 71 16 49 7
-11 9 -11 9 2 0 50 53 38 109 -26 17 -20 31 -30 31 -24 0 22 -80 88 -120 99
-42 11 -77 6 -124 -17 -27 -14 -28 -14 -21 3 14 32 17 98 6 126 -24 63 -135
88 -228 50z"/>
<path d="M3896 2333 c-6 -14 -5 -15 5 -6 7 7 10 15 7 18 -3 3 -9 -2 -12 -12z"/>
<path d="M4215 2285 c-36 -16 -29 -19 13 -4 38 13 66 0 87 -41 22 -43 19 -101
-8 -141 -19 -28 -30 -35 -64 -37 -23 -2 -57 4 -77 12 -51 21 -45 9 7 -14 71
-33 120 -22 158 36 36 55 19 167 -30 194 -26 13 -49 12 -86 -5z"/>
<path d="M5230 2243 c18 -35 37 -63 42 -63 5 0 -3 17 -17 37 -14 21 -25 43
-25 49 0 6 -8 18 -17 25 -10 9 -3 -11 17 -48z"/>
<path d="M2265 2279 c-11 -17 4 -57 24 -64 40 -12 76 30 51 60 -14 17 -66 20
-75 4z m72 -15 c7 -20 -22 -45 -43 -37 -8 3 -14 16 -14 29 0 19 5 24 25 24 15
0 28 -7 32 -16z"/>
<path d="M4499 2278 c0 -2 -7 -28 -14 -58 -7 -30 -21 -80 -30 -110 -22 -70 -8
-129 40 -177 41 -41 80 -43 145 -8 51 27 47 33 -7 10 -75 -31 -125 -16 -154
48 -24 53 -24 83 0 154 20 60 35 143 26 143 -3 0 -5 -1 -6 -2z"/>
<path d="M4642 2228 c2 -6 10 -14 16 -16 7 -2 10 2 6 12 -7 18 -28 22 -22 4z"/>
<path d="M2492 2196 l-34 -33 27 -31 c32 -38 41 -39 79 -9 l29 23 -27 42 c-14
23 -30 42 -34 41 -4 -1 -22 -16 -40 -33z m71 -56 c-15 -23 -47 -23 -68 0 -18
20 -18 21 10 50 l28 30 20 -32 c14 -23 16 -37 10 -48z"/>
<path d="M3988 2223 c6 -2 18 -2 25 0 6 3 1 5 -13 5 -14 0 -19 -2 -12 -5z"/>
<path d="M1762 2208 c-20 -20 -13 -32 8 -13 25 22 52 13 48 -17 -3 -23 -48
-40 -48 -19 0 6 -5 11 -11 11 -8 0 -8 -5 1 -15 20 -25 59 -19 66 10 3 14 4 32
0 40 -7 18 -47 20 -64 3z"/>
<path d="M4008 2193 c6 -2 18 -2 25 0 6 3 1 5 -13 5 -14 0 -19 -2 -12 -5z"/>
<path d="M3843 2123 c2 -64 6 -76 33 -110 33 -40 98 -79 151 -89 70 -14 124
95 73 146 -23 23 -29 24 -50 10 -12 -8 -11 -10 6 -10 45 0 63 -72 28 -111 -24
-27 -52 -24 -114 14 -67 40 -107 95 -119 167 l-10 55 2 -72z"/>
<path d="M4755 2180 c3 -5 13 -10 21 -10 8 0 14 5 14 10 0 6 -9 10 -21 10 -11
0 -17 -4 -14 -10z"/>
<path d="M3977 2163 c-15 -14 -6 -33 16 -32 21 0 21 1 2 9 -19 8 -19 9 3 9 12
1 22 6 22 11 0 11 -33 14 -43 3z"/>
<path d="M4792 2068 c9 -23 13 -28 16 -16 3 15 7 16 23 7 11 -5 28 -8 37 -6
15 3 14 5 -3 11 -18 7 -56 24 -77 34 -4 2 -2 -11 4 -30z"/>
<path d="M1418 1908 c49 -95 102 -202 117 -238 52 -126 208 -470 212 -466 5 4
-113 283 -197 466 -59 130 -208 410 -217 410 -3 0 36 -78 85 -172z"/>
<path d="M4580 2070 c0 -13 18 -22 24 -11 3 5 -1 11 -9 15 -8 3 -15 1 -15 -4z"/>
<path d="M4736 2043 c-32 -67 -32 -135 -2 -213 15 -38 34 -74 42 -80 20 -17
18 -7 -10 42 -48 87 -54 188 -15 260 6 11 9 22 7 24 -3 2 -12 -13 -22 -33z"/>
<path d="M5168 2033 c3 -25 16 -62 28 -81 13 -19 24 -41 24 -49 0 -32 -33 -90
-68 -120 -20 -18 -31 -33 -23 -33 7 0 33 20 57 44 39 38 44 49 44 87 0 29 -8
58 -25 84 -14 23 -25 56 -25 78 0 20 -4 37 -9 37 -5 0 -6 -21 -3 -47z"/>
<path d="M1714 2030 c-32 -13 -74 -69 -74 -99 0 -34 23 -67 60 -86 46 -24 45
-18 -2 18 -48 37 -58 66 -33 103 20 31 73 64 103 64 30 0 72 -43 72 -73 0 -15
-15 -40 -40 -65 -32 -32 -40 -47 -40 -76 0 -75 57 -136 127 -136 48 0 81 22
99 67 28 66 -23 157 -98 172 -28 6 -34 12 -39 44 -8 52 -34 77 -78 76 -20 0
-45 -4 -57 -9z m227 -159 c33 -33 39 -45 39 -81 0 -33 -6 -48 -30 -72 -28 -27
-36 -30 -73 -25 -30 4 -50 15 -69 36 -49 55 -49 107 -2 154 41 41 86 37 135
-12z"/>
<path d="M2126 2024 c-50 -18 -48 -16 -40 -58 6 -36 7 -37 48 -34 41 3 41 3
44 47 2 24 0 47 -5 51 -4 4 -26 1 -47 -6z m42 -41 c-3 -32 -7 -38 -29 -41 -19
-2 -28 3 -37 23 -11 24 -10 27 20 40 47 20 50 19 46 -22z"/>
<path d="M5044 2015 c-24 -18 -20 -18 36 -1 41 13 42 15 14 15 -16 1 -39 -6
-50 -14z"/>
<path d="M4875 2009 c-15 -6 -9 -8 23 -8 50 -1 52 -9 9 -36 -17 -11 -33 -29
-35 -40 -2 -16 0 -15 10 5 16 29 54 35 68 11 8 -12 9 -8 4 13 -7 31 -3 32 51
10 18 -7 19 -6 5 11 -11 14 -12 19 -2 22 6 3 12 9 12 14 0 6 -8 6 -19 -1 -23
-12 -61 -13 -61 -2 0 10 -41 11 -65 1z"/>
<path d="M5092 1989 c-24 -12 -41 -24 -38 -26 2 -2 18 3 35 12 18 9 36 13 41
10 6 -3 10 1 10 9 0 20 3 20 -48 -5z"/>
<path d="M5390 1990 c6 -11 13 -20 16 -20 2 0 0 9 -6 20 -6 11 -13 20 -16 20
-2 0 0 -9 6 -20z"/>
<path d="M2495 1961 c-78 -19 -201 -107 -237 -170 -21 -36 -24 -38 -64 -33
-35 4 -44 1 -58 -19 -22 -32 -20 -82 3 -103 17 -15 25 -16 55 -6 20 6 36 16
36 21 0 6 -8 6 -19 -1 -37 -19 -70 -12 -77 17 -11 42 15 78 56 78 32 0 34 -2
46 -50 14 -56 73 -119 121 -128 33 -6 44 0 17 9 -88 28 -124 72 -124 148 0 46
3 53 48 95 191 184 324 172 386 -34 3 -12 -3 -34 -15 -55 l-21 -34 -27 31
c-14 17 -36 36 -48 42 -72 36 -183 -21 -182 -94 l1 -30 8 32 c9 40 25 60 61
79 58 30 121 9 164 -53 33 -49 33 -96 -1 -130 -23 -23 -31 -25 -99 -21 -78 4
-108 19 -126 67 -5 13 -12 21 -15 18 -10 -10 20 -59 48 -80 34 -25 126 -34
168 -17 42 17 64 62 57 117 -2 24 -1 46 4 49 5 3 16 19 24 35 15 27 14 34 -6
89 -22 60 -83 130 -113 130 -8 0 -20 2 -28 4 -7 2 -26 1 -43 -3z"/>
<path d="M2704 1938 l-32 -19 22 -54 c11 -30 26 -55 32 -55 6 0 21 11 33 24
l23 24 -23 50 -24 49 -31 -19z m53 -57 c6 -25 -5 -52 -24 -58 -5 -2 -18 17
-28 42 -16 45 -16 47 1 60 17 12 21 12 32 -3 7 -9 16 -28 19 -41z"/>
<path d="M5060 1893 c0 -12 -5 -23 -12 -25 -8 -3 -8 -9 0 -23 9 -17 11 -15 17
18 4 21 5 41 1 44 -3 4 -6 -3 -6 -14z"/>
<path d="M4450 1886 c-14 -18 -10 -58 8 -64 11 -3 11 0 1 16 -31 49 24 71 61
25 20 -26 20 -27 9 -3 -20 42 -56 53 -79 26z"/>
<path d="M4842 1858 c-12 -23 -20 -43 -18 -46 8 -8 74 38 81 55 4 12 -2 10
-21 -7 l-26 -25 7 33 c3 17 5 32 3 32 -2 0 -13 -19 -26 -42z"/>
<path d="M4411 1862 c-1 -34 14 -58 49 -72 27 -11 33 -10 50 5 11 10 20 23 20
29 0 6 -5 3 -11 -6 -12 -22 -62 -24 -78 -4 -7 8 -16 27 -21 43 -7 25 -8 26 -9
5z"/>
<path d="M4617 1843 c14 -109 -32 -164 -142 -171 -107 -7 -177 45 -195 145
l-9 48 3 -52 c8 -134 170 -209 288 -134 72 46 94 107 64 176 l-14 30 5 -42z"/>
<path d="M5480 1864 c8 -10 23 -27 35 -37 20 -17 20 -18 -14 -47 -19 -16 -33
-32 -30 -34 6 -6 79 62 79 73 0 7 -38 37 -70 56 -13 8 -13 7 0 -11z"/>
<path d="M3812 1838 c-13 -13 -16 -54 -4 -61 4 -2 19 -7 34 -11 21 -5 30 -2
38 15 23 41 -35 90 -68 57z m56 -35 c3 -19 -1 -23 -22 -23 -21 0 -26 5 -26 26
0 21 4 25 23 22 14 -2 23 -11 25 -25z"/>
<path d="M4485 1830 c-3 -5 -1 -10 4 -10 6 0 11 5 11 10 0 6 -2 10 -4 10 -3 0
-8 -4 -11 -10z"/>
<path d="M4321 1809 c-2 -44 91 -109 154 -108 34 1 26 5 -28 14 -40 6 -103 55
-117 89 -6 15 -9 17 -9 5z"/>
<path d="M4394 1772 c13 -15 29 -22 50 -21 l31 1 -32 8 c-18 4 -41 14 -50 21
-15 11 -15 10 1 -9z"/>
<path d="M5030 1720 c-25 -10 -37 -19 -27 -19 20 -1 87 25 87 33 0 9 -12 6
-60 -14z"/>
<path d="M5405 1730 c-3 -5 -2 -10 4 -10 5 0 13 5 16 10 3 6 2 10 -4 10 -5 0
-13 -4 -16 -10z"/>
<path d="M4824 1705 c11 -8 25 -15 30 -15 6 0 2 7 -8 15 -11 8 -25 15 -30 15
-6 0 -2 -7 8 -15z"/>
<path d="M5299 1695 c-36 -12 -74 -27 -85 -32 -45 -24 -98 -44 -180 -67 -88
-26 -111 -36 -81 -36 56 0 250 56 242 70 -6 10 31 24 43 16 9 -6 113 22 125
34 5 4 7 14 5 22 -2 13 -13 12 -69 -7z"/>
<path d="M4895 1690 c-4 -6 10 -10 34 -10 22 0 43 5 46 10 4 6 -10 10 -34 10
-22 0 -43 -4 -46 -10z"/>
<path d="M5417 1649 c-22 -13 -97 -34 -212 -58 -84 -18 -151 -39 -131 -40 20
-2 263 51 313 68 56 19 90 41 63 41 -8 0 -23 -5 -33 -11z"/>
<path d="M3717 1633 c-11 -11 -8 -58 5 -71 19 -19 56 -14 68 9 9 16 8 26 -5
45 -15 23 -53 33 -68 17z m53 -18 c19 -23 8 -50 -20 -50 -20 0 -25 5 -26 25
-1 14 0 28 3 33 7 12 30 8 43 -8z"/>
<path d="M5038 1543 c7 -3 16 -2 19 1 4 3 -2 6 -13 5 -11 0 -14 -3 -6 -6z"/>
<path d="M1818 1533 c-22 -5 -23 -36 -2 -57 12 -12 20 -13 35 -6 39 21 12 73
-33 63z m38 -42 c-10 -16 -36 -13 -43 5 -8 22 18 37 36 20 7 -8 10 -19 7 -25z"/>
<path d="M2013 1498 c-47 -33 -68 -81 -53 -119 17 -39 68 -69 116 -68 22 1 30
3 19 6 -11 2 -30 6 -42 8 -12 3 -35 17 -52 31 -41 34 -42 75 -2 115 37 36 98
40 151 9 l35 -21 -33 31 c-40 38 -92 41 -139 8z"/>
<path d="M5160 1470 c-23 -7 -23 -8 -3 -9 12 -1 25 4 28 9 3 6 5 10 3 9 -2 -1
-14 -5 -28 -9z"/>
<path d="M5108 1453 c7 -3 16 -2 19 1 4 3 -2 6 -13 5 -11 0 -14 -3 -6 -6z"/>
<path d="M2183 1435 c-35 -24 -45 -50 -32 -79 22 -48 90 -39 120 15 9 18 7 26
-8 48 -24 32 -50 37 -80 16z m58 -5 c39 -21 11 -90 -37 -90 -21 0 -54 23 -54
38 1 19 40 54 68 61 2 1 12 -4 23 -9z"/>
<path d="M5068 1443 c7 -3 16 -2 19 1 4 3 -2 6 -13 5 -11 0 -14 -3 -6 -6z"/>
<path d="M5028 1433 c7 -3 16 -2 19 1 4 3 -2 6 -13 5 -11 0 -14 -3 -6 -6z"/>
<path d="M4988 1423 c7 -3 16 -2 19 1 4 3 -2 6 -13 5 -11 0 -14 -3 -6 -6z"/>
<path d="M4938 1413 c7 -3 16 -2 19 1 4 3 -2 6 -13 5 -11 0 -14 -3 -6 -6z"/>
<path d="M4898 1403 c7 -3 16 -2 19 1 4 3 -2 6 -13 5 -11 0 -14 -3 -6 -6z"/>
<path d="M4858 1393 c7 -3 16 -2 19 1 4 3 -2 6 -13 5 -11 0 -14 -3 -6 -6z"/>
<path d="M4808 1383 c7 -3 16 -2 19 1 4 3 -2 6 -13 5 -11 0 -14 -3 -6 -6z"/>
<path d="M4630 1340 c-13 -8 -12 -10 3 -10 9 0 17 5 17 10 0 12 -1 12 -20 0z"/>
<path d="M4508 1303 c7 -3 16 -2 19 1 4 3 -2 6 -13 5 -11 0 -14 -3 -6 -6z"/>
<path d="M4458 1293 c7 -3 16 -2 19 1 4 3 -2 6 -13 5 -11 0 -14 -3 -6 -6z"/>
<path d="M4418 1283 c7 -3 16 -2 19 1 4 3 -2 6 -13 5 -11 0 -14 -3 -6 -6z"/>
<path d="M4378 1273 c7 -3 16 -2 19 1 4 3 -2 6 -13 5 -11 0 -14 -3 -6 -6z"/>
<path d="M4338 1263 c7 -3 16 -2 19 1 4 3 -2 6 -13 5 -11 0 -14 -3 -6 -6z"/>
<path d="M4298 1253 c7 -3 16 -2 19 1 4 3 -2 6 -13 5 -11 0 -14 -3 -6 -6z"/>
<path d="M4258 1243 c7 -3 16 -2 19 1 4 3 -2 6 -13 5 -11 0 -14 -3 -6 -6z"/>
<path d="M4218 1233 c7 -3 16 -2 19 1 4 3 -2 6 -13 5 -11 0 -14 -3 -6 -6z"/>
<path d="M4178 1223 c7 -3 16 -2 19 1 4 3 -2 6 -13 5 -11 0 -14 -3 -6 -6z"/>
<path d="M2735 1198 c-60 -5 -114 -13 -120 -19 -9 -9 86 -4 121 6 6 2 154 -1
330 -6 288 -8 454 -19 524 -35 23 -5 23 -4 6 7 -42 26 -132 39 -341 49 -252
11 -365 11 -520 -2z"/>
<path d="M2558 1163 c7 -3 16 -2 19 1 4 3 -2 6 -13 5 -11 0 -14 -3 -6 -6z"/>
<path d="M1770 1151 c0 -6 4 -13 10 -16 6 -3 7 1 4 9 -7 18 -14 21 -14 7z"/>
<path d="M1790 1117 c0 -8 58 -138 65 -145 2 -3 44 11 91 29 48 19 80 35 71
37 -8 2 -38 -6 -65 -18 -74 -32 -91 -26 -129 45 -18 33 -33 57 -33 52z"/>
<path d="M2230 1085 c-19 -7 -28 -13 -20 -13 8 0 31 6 50 13 19 7 28 13 20 13
-8 0 -31 -6 -50 -13z"/>
<path d="M2158 1063 c6 -2 18 -2 25 0 6 3 1 5 -13 5 -14 0 -19 -2 -12 -5z"/>
<path d="M2108 1053 c6 -2 18 -2 25 0 6 3 1 5 -13 5 -14 0 -19 -2 -12 -5z"/>
<path d="M2053 1043 c9 -2 23 -2 30 0 6 3 -1 5 -18 5 -16 0 -22 -2 -12 -5z"/>
</g>
</svg>
